<svg xmlns="http://www.w3.org/2000/svg" viewBox="0 0 164.7 185.09"><defs><style>.cls-1{fill:#ffefe6;}.cls-2{fill:none;stroke:#e6ae8e;stroke-miterlimit:10;stroke-width:0.25px;}.cls-3{fill:#2a1543;}.cls-4{fill:#8c8ffe;}.cls-5{fill:#eb9c73;}.cls-6{fill:#402664;}.cls-7{fill:#bfbefc;}.cls-8{fill:#fff;}.cls-9{fill:#ffd453;}.cls-10{fill:#ff9620;}.cls-11{fill:#421f09;}.cls-12{fill:#c16b5b;}.cls-13{fill:#8e4136;}.cls-14{fill:#c15353;}.cls-15{fill:#e6e7fd;}</style></defs><title>Asset 1</title><g id="Layer_2" data-name="Layer 2"><g id="OBJECTS"><path class="cls-1" d="M54.53,28.89C51.29,34.27,48,39.62,43.73,44.16,33.49,55.11,18.34,60.78,9,72.53c-9,11.31-11.14,27.23-7,41.06,6,20.09,23.12,34.29,42.49,41.17,16.44,5.85,34.33,6.67,51.67,4.8,26.2-2.82,55.29-13.16,65.36-39.9,8.94-23.75-2.75-45.64-14.62-65.84a347.79,347.79,0,0,0-26.54-38.11C112.2,5.3,101.45-2.2,87.5.59,72.28,3.63,62.13,16.3,54.53,28.89Z"/><rect class="cls-2" x="41.2" y="18.58" width="63.04" height="26.11" rx="6.36"/><path class="cls-2" d="M62.92,32.24A9.34,9.34,0,1,1,54.2,22.3,9.34,9.34,0,0,1,62.92,32.24Z"/><rect class="cls-2" x="65.62" y="23.7" width="25.39" height="1.15"/><rect class="cls-2" x="65.62" y="26.51" width="34.7" height="1.15"/><rect class="cls-2" x="65.62" y="29.32" width="34.7" height="1.15"/><rect class="cls-2" x="65.62" y="32.14" width="34.7" height="1.15"/><rect class="cls-2" x="65.62" y="34.95" width="34.7" height="1.15"/><rect class="cls-2" x="65.62" y="37.76" width="34.7" height="1.15"/><rect class="cls-2" x="14.78" y="51.98" width="63.04" height="26.11" rx="6.36"/><path class="cls-2" d="M56.09,65.64a9.35,9.35,0,1,0,8.73-9.94A9.35,9.35,0,0,0,56.09,65.64Z"/><rect class="cls-2" x="28.01" y="57.1" width="25.39" height="1.15" transform="translate(81.4 115.35) rotate(180)"/><rect class="cls-2" x="18.69" y="59.91" width="34.7" height="1.15" transform="translate(72.09 120.98) rotate(180)"/><rect class="cls-2" x="18.69" y="62.72" width="34.7" height="1.15" transform="translate(72.09 126.6) rotate(180)"/><rect class="cls-2" x="18.69" y="65.54" width="34.7" height="1.15" transform="translate(72.09 132.23) rotate(180)"/><rect class="cls-2" x="18.69" y="68.35" width="34.7" height="1.15" transform="translate(72.09 137.86) rotate(180)"/><rect class="cls-2" x="18.69" y="71.17" width="34.7" height="1.15" transform="translate(72.09 143.49) rotate(180)"/><polygon class="cls-3" points="69.6 100.9 84.16 185.09 81.86 185.09 64.39 100.9 69.6 100.9"/><polygon class="cls-3" points="43.39 100.9 28.83 185.09 31.13 185.09 48.6 100.9 43.39 100.9"/><polygon class="cls-3" points="103.17 130.01 95.48 184.97 97.23 184.97 107.87 130.01 103.17 130.01"/><polygon class="cls-3" points="117.27 130.01 124.96 184.97 123.21 184.97 112.57 130.01 117.27 130.01"/><polygon class="cls-3" points="121.94 130.01 114.25 184.97 116.01 184.97 126.64 130.01 121.94 130.01"/><polygon class="cls-3" points="136.05 130.01 143.74 184.97 141.98 184.97 131.35 130.01 136.05 130.01"/><path class="cls-4" d="M94.34,127.71c2.77,7,45,6.13,50.36,0,4.93-5.63,24.58-58.55-5.39-58.55-26.65,0-22.28,53.29-22.62,53.9S94.5,124.08,94.34,127.71Z"/><path class="cls-5" d="M134.65,105.6c0,19.6-29.66,22.91-29.66,22.91l-17.86,1.18-11,39.19L74,176.32c-2.71,1.11-7.65.08-7.65.08s.36-3.38.88-8.37c1.31-12.29,3.68-34.33,4.44-39.22,1.95-12.42,5.19-15,16.25-17,7.84-1.42,22.21-4.43,22.21-4.43l3-2.09Z"/><path class="cls-6" d="M134.65,105.6c0,19.6-29.65,22.91-29.65,22.91L87.46,130.3,77,172.66c-4.72.23-9.7,0-12.17-1.32.1-1,6.16-38.35,6.81-42.53,1.95-12.42,5.19-15,16.25-17,7.84-1.42,22.2-4.43,22.2-4.43l3-2.09Z"/><path class="cls-4" d="M111.18,183.27l0,.16c0,.19,0,.38-.06.57l0,.16c0,.2-.08.43-.12.66l-24.88.27a5.46,5.46,0,0,1,0-.66c0-.13,0-.27,0-.43s0-.19,0-.3a.94.94,0,0,1,0-.16c.25-1.41,1.25-3.35,4.64-4,.17,0,.34-.06.52-.09h0c.26,0,.53-.07.82-.09l.28,0c6.8-.6,9.79-2.92,9.79-2.92a21.54,21.54,0,0,0,7.64-.08,9.62,9.62,0,0,1,.84,2c.06.21.13.44.19.68a1.13,1.13,0,0,0,0,.15c0,.09,0,.2.07.31s0,.07,0,.1,0,0,0,0a13.2,13.2,0,0,1,.22,1.68A12.51,12.51,0,0,1,111.18,183.27Z"/><path class="cls-7" d="M111.09,184l0,.16c0,.2-.08.43-.12.66l-24.88.27a5.46,5.46,0,0,1,0-.66c0-.13,0-.27,0-.43Z"/><path class="cls-8" d="M99.71,176.63a.4.4,0,0,1,.31-.13.53.53,0,0,1,.32.12l.2.16,1,.73a.42.42,0,0,1,.21.26.44.44,0,0,1,0,.34.45.45,0,0,1-.61.17c-.47-.33-.94-.67-1.39-1a.43.43,0,0,1-.14-.31A.48.48,0,0,1,99.71,176.63Z"/><path class="cls-8" d="M98,177.44a.45.45,0,0,1,.62,0,7.08,7.08,0,0,0,1.1,1l.19.14a.53.53,0,0,1,.21.26.47.47,0,0,1,0,.35.45.45,0,0,1-.61.16A8.19,8.19,0,0,1,98,178.07a.46.46,0,0,1-.13-.31A.44.44,0,0,1,98,177.44Z"/><path class="cls-8" d="M96.34,178a.48.48,0,0,1,.32-.13A.4.4,0,0,1,97,178l1,1.28a.49.49,0,0,1,.14.31.48.48,0,0,1-.13.32.4.4,0,0,1-.31.13.41.41,0,0,1-.32-.12l-1-1.29a.44.44,0,0,1-.13-.31A.47.47,0,0,1,96.34,178Z"/><path class="cls-8" d="M94.55,178.47a.45.45,0,0,1,.61.16c.23.37.45.74.67,1.12a.44.44,0,0,1-.13.63.45.45,0,0,1-.62-.16l-.67-1.12A.45.45,0,0,1,94.55,178.47Z"/><path class="cls-4" d="M75.36,183.27l0,.16-.06.57,0,.16c0,.2-.09.43-.13.66l-24.87.27a3.71,3.71,0,0,1,0-.66,3.46,3.46,0,0,1,0-.43c0-.1,0-.19,0-.3a.9.9,0,0,1,0-.16c.26-1.41,1.26-3.35,4.65-4,.16,0,.33-.06.52-.09h0q.39-.06.81-.09l.28,0c6.81-.6,9.79-2.92,9.79-2.92a21.61,21.61,0,0,0,7.65-.08,9.33,9.33,0,0,1,.83,2c.07.21.13.44.19.68,0,0,0,.1,0,.15s0,.2.06.31a.36.36,0,0,1,0,.1s0,0,0,0a13.2,13.2,0,0,1,.22,1.68A12.56,12.56,0,0,1,75.36,183.27Z"/><path class="cls-7" d="M75.28,184l0,.16c0,.2-.09.43-.13.66l-24.87.27a3.71,3.71,0,0,1,0-.66,3.46,3.46,0,0,1,0-.43Z"/><path class="cls-8" d="M63.9,176.63a.4.4,0,0,1,.31-.13.5.5,0,0,1,.31.12l.21.16c.33.25.67.49,1,.73a.46.46,0,0,1,.21.26.44.44,0,0,1,0,.34.45.45,0,0,1-.61.17c-.48-.33-.94-.67-1.4-1a.46.46,0,0,1-.13-.31A.44.44,0,0,1,63.9,176.63Z"/><path class="cls-8" d="M62.14,177.44a.46.46,0,0,1,.63,0,7.08,7.08,0,0,0,1.1,1,1.33,1.33,0,0,0,.19.14.51.51,0,0,1,.2.26.44.44,0,0,1-.64.51,7.86,7.86,0,0,1-1.47-1.29.46.46,0,0,1-.13-.31A.47.47,0,0,1,62.14,177.44Z"/><path class="cls-8" d="M60.53,178a.44.44,0,0,1,.31-.13.42.42,0,0,1,.32.13l1,1.28a.55.55,0,0,1,.14.31.48.48,0,0,1-.13.32.43.43,0,0,1-.31.13.41.41,0,0,1-.32-.12l-1-1.29a.5.5,0,0,1-.14-.31A.48.48,0,0,1,60.53,178Z"/><path class="cls-8" d="M58.74,178.47a.45.45,0,0,1,.61.16c.23.37.45.74.67,1.12a.44.44,0,1,1-.75.47l-.67-1.12A.45.45,0,0,1,58.74,178.47Z"/><path class="cls-5" d="M132.81,128.65c-10.83,0-31.27-.16-31.27-.16l6.61,38.19,1.67,9.64a12.8,12.8,0,0,1-7.64.08s-1.39-3.79-3.33-9.12c-4.27-11.69-11.24-30.79-12.35-33.78-3.66-9.87-2.94-21.25,12.57-23.56,13.92-2.06,30-4.06,30-4.06h19.35C150.18,116.27,143.63,128.65,132.81,128.65Z"/><path class="cls-6" d="M132.7,128.66c-10.82,0-30.67,0-30.67,0l8.55,42c-.29.05-3.38,1.8-12.55,1.25-.33-.88-11.5-35.61-12.46-38.21-3.67-9.87-2.19-21.57,13.33-23.88,13.92-2.07,29.69-4.44,29.69-4.44l19.84.44C150.48,117.93,143.53,128.66,132.7,128.66Z"/><path class="cls-3" d="M119.67,105.73a2,2,0,0,0-.8,2.08l-11.5,1.41-5.75.7c-1.85.23-3.7.44-5.53.8a17.56,17.56,0,0,0-8.87,4,12.52,12.52,0,0,0-3.69,8.43,24.09,24.09,0,0,0,2.06,10.3c.16.4.32.79.49,1.18.06.14.26,0,.2-.12a26.91,26.91,0,0,1-2.54-10.23,12.92,12.92,0,0,1,3-8.75,15.87,15.87,0,0,1,8.43-4.41,54.6,54.6,0,0,1,5.42-.87l5.66-.69,11.36-1.4L119,108a.09.09,0,0,0,.09-.06.12.12,0,0,0,0-.1,1.75,1.75,0,0,1,.67-1.93C119.91,105.84,119.8,105.64,119.67,105.73Z"/><path class="cls-5" d="M82.39,71.84a4.07,4.07,0,0,1-3.75.35,3.74,3.74,0,0,1-2-2.46s-2.67,1.55-3.25,1.18S75.6,68.5,75.6,68.5s-3.58.53-3.71,0S75.54,67,75.54,67s-3.8-1.14-3.56-1.91,4.92.62,4.92.62-1.76-3-1.13-3.38c.9-.56,5,4.65,5,4.59s1.14-3,2.25-2.39-.32,1.63-.19,3.1C82.91,68.35,83.55,70.85,82.39,71.84Z"/><path class="cls-9" d="M122.06,58.56c-6.61,2.36-17.91,23.9-17.91,23.9S86.54,68.75,83.93,67.58c0,0-5,5.73-5,5.82C80.35,75.22,96.3,89,99.21,91.33s8.52,3.76,12-.66a112.85,112.85,0,0,0,8.33-13.15Z"/><path class="cls-8" d="M112.75,105.44a121,121,0,0,0,35.68,1L143.72,58l-7.45-1.86-7.07.06-7.14,2.37Z"/><path class="cls-9" d="M128.43,56.44,125,79.28l-7.28,27.8s-4.4.26-7-1.2l11.38-47.32Z"/><path class="cls-9" d="M137.65,56.47l-3.75,23,2.22,30.12s8.07,1,14.15-.46L143.72,58Z"/><path class="cls-10" d="M121.61,62.39q-1.14,5.25-2.27,10.51c-.22,1-1.82,9.06-2,10,0,.15.19.22.22.08.76-3.51,2.91-14.1,3.66-17.6.22-1,.43-2,.64-3C121.87,62.32,121.64,62.24,121.61,62.39Z"/><path class="cls-5" d="M116.41,80.94c-1.09-.27-4.52-2.36-6-2.07s-6.56,2-6.36,2.88c.12.56,3.54-.2,3.54-.2s-3.74,1.8-3.36,2.5,4.12-1.19,4.12-1.19-3.77,2.33-3.25,3.15,4.15-1.89,4.15-1.89a2.34,2.34,0,0,0-.9,2.25c.26,1,1.29,1.91,1.72,1.6s-.35-1.62-.32-1.83.67-.84.67-.84c1.47,1.79,4.56,1.23,4.56,1.23Z"/><path class="cls-9" d="M143.72,58c5,.94,5.84,21.71,6,24.9.14,2.27-.9,8-4.66,8.43s-29.84-3.5-30.3-3.94.62-7.24,1.33-7.4S141,81.67,141,81.67l-.95-16.89Z"/><path class="cls-10" d="M142.38,81.75,133,81l-9.38-.74-5.3-.42c-.15,0-.15.22,0,.24l9.44.74,9.37.75,5.3.41C142.53,82,142.53,81.76,142.38,81.75Z"/><path class="cls-10" d="M147.12,90.09a2.44,2.44,0,0,1-2,1.18,9.15,9.15,0,0,1-1.48,0l-1.5-.15q-3-.28-6-.63c-2-.24-4-.48-6-.75s-4-.55-6.06-.85-4-.61-6-.94l-.76-.13c-.14,0-.21.2-.06.22q3.06.52,6.12,1t6.12.87c2,.28,4.08.53,6.12.77s4.11.46,6.17.66l1.54.14a10.84,10.84,0,0,0,1.51.09,3.1,3.1,0,0,0,2.23-.85,2,2,0,0,0,.32-.46C147.39,90.07,147.19,90,147.12,90.09Z"/><path class="cls-10" d="M140,75.71q-.28-2.92-.5-5.86c-.08-1.11-.16-2.21-.22-3.32,0-.15-.25-.15-.24,0,.12,2,.26,3.93.43,5.89s.35,3.91.56,5.86c.12,1.1.25,2.21.39,3.31,0,.15.25.15.23,0C140.38,79.63,140.16,77.68,140,75.71Z"/><path class="cls-11" d="M137.21,48.33a14.87,14.87,0,0,0,5.86-9.92,7.47,7.47,0,0,0-.26-3.52,3.74,3.74,0,0,0-2.48-2.37,17.23,17.23,0,0,0-9.69-6.86,11.07,11.07,0,0,0-7.47.49,8.15,8.15,0,0,0-3.7,11,12.56,12.56,0,0,0,2,8.83C126.68,46.6,132.05,47.71,137.21,48.33Z"/><path class="cls-5" d="M138.33,45.06a32.47,32.47,0,0,0-2,12.69,3.78,3.78,0,0,1-7,.2c-.08-2.73-.62-4-1.54-4.87l-.23-.22-.17-.14-.34-.26-.26-.17-.26-.18h0a26.38,26.38,0,0,1-2.45-1.69,8,8,0,0,1-2.82-4.68c0-.1,0-.21-.07-.31l0-.1a.36.36,0,0,0,0-.1l0-.18s0-.06,0-.09a32.26,32.26,0,0,1,.34-10c.73-4.62,11.75-6.91,15.08-1.23C137.88,36.06,138.33,45.06,138.33,45.06Z"/><path class="cls-11" d="M120.64,37.65a3.77,3.77,0,0,0,1.75-2.58,10.66,10.66,0,0,0,10-.34A2.42,2.42,0,0,0,135,38.17a3.07,3.07,0,0,0,.35,3.25,6.06,6.06,0,0,0,3.23,1.64,18.91,18.91,0,0,0-.42-7.65,9,9,0,0,0-4.93-5.59,11.61,11.61,0,0,0-5.68-.44A9.76,9.76,0,0,0,122.69,31,6.13,6.13,0,0,0,120.64,37.65Z"/><path class="cls-12" d="M126.33,43.9a1.26,1.26,0,0,0-.51-.11.78.78,0,0,0-.47.13.65.65,0,0,0-.2.46,1.14,1.14,0,0,0,.13.47.18.18,0,0,0,.21.11.18.18,0,0,0,.11-.22.8.8,0,0,1-.11-.34.28.28,0,0,1,0-.18h0a.19.19,0,0,1,.15-.09h.23a1.57,1.57,0,0,1,.29.08.19.19,0,0,0,.21-.08A.18.18,0,0,0,126.33,43.9Z"/><path class="cls-11" d="M122.38,39.91a3,3,0,0,1,2.84-.23.48.48,0,0,1,.26.62.5.5,0,0,1-.71.22,2.12,2.12,0,0,0-.78-.15s0,0,0,0a2.17,2.17,0,0,0-1,.24l-.06,0a.47.47,0,0,1-.66-.09A.46.46,0,0,1,122.38,39.91Z"/><path class="cls-11" d="M128.09,39.61a3,3,0,0,1,2.85.13.47.47,0,0,1,.18.64.48.48,0,0,1-.65.18l-.27-.14h0l-.05,0-.11,0a1.53,1.53,0,0,0-.29-.07l-.07,0h-.41l-.16,0h0l-.28.07-.14,0-.06,0h0a.47.47,0,0,1-.64-.16A.48.48,0,0,1,128.09,39.61Z"/><path d="M130.13,42.71a.77.77,0,0,1-.69.84.78.78,0,0,1-.84-.7.77.77,0,0,1,1.53-.14Z"/><path class="cls-8" d="M129.3,42.54a.22.22,0,0,1-.2.24.21.21,0,0,1-.25-.2.23.23,0,0,1,.45,0Z"/><path d="M124.53,42.89a.76.76,0,0,1-.69.83.76.76,0,1,1-.14-1.52A.76.76,0,0,1,124.53,42.89Z"/><path class="cls-8" d="M123.7,42.72a.22.22,0,0,1-.44,0,.21.21,0,0,1,.2-.24A.22.22,0,0,1,123.7,42.72Z"/><path class="cls-13" d="M128.47,45.91c-.23-.32-.77,0-1.44.11s-1.28-.15-1.42.21.51,1.46,1.6,1.34S128.75,46.31,128.47,45.91Z"/><path class="cls-14" d="M128.46,46.63a5.08,5.08,0,0,0-.67,0,3.28,3.28,0,0,0-1.71.59,1.55,1.55,0,0,0,1.13.32A1.53,1.53,0,0,0,128.46,46.63Z"/><path class="cls-8" d="M127.07,46.4c.6-.07,1.09-.27,1.23-.61-.27-.08-.73.17-1.27.23s-1-.07-1.29.06A1.48,1.48,0,0,0,127.07,46.4Z"/><path class="cls-5" d="M140.76,45.19a2.18,2.18,0,1,1,0-3.41A2.44,2.44,0,0,1,140.76,45.19Z"/><path class="cls-12" d="M140.15,42.35a1.63,1.63,0,0,0-1.44.07,1.35,1.35,0,0,0-.54.44.84.84,0,0,0-.1.76,1.28,1.28,0,0,0,.41.45,1,1,0,0,1,.28.26.44.44,0,0,1,0,.49.41.41,0,0,1-.48.11.19.19,0,0,0-.15.35,1,1,0,0,0,.33.06.81.81,0,0,0,.58-.28.8.8,0,0,0,.07-.93,1.33,1.33,0,0,0-.36-.35.84.84,0,0,1-.29-.31.43.43,0,0,1,.06-.4.64.64,0,0,1,.14-.15.71.71,0,0,1,.53.17.63.63,0,0,1,.18.54.2.2,0,0,0,.16.21h0a.19.19,0,0,0,.18-.16,1,1,0,0,0-.28-.85.84.84,0,0,0-.28-.18,1.15,1.15,0,0,1,.84,0,.72.72,0,0,1,.39.86.19.19,0,1,0,.34.15A1.08,1.08,0,0,0,140.15,42.35Z"/><rect class="cls-6" x="33.58" y="98.89" width="93.69" height="2.01"/><polygon class="cls-3" points="118.44 100.9 133 185.09 130.7 185.09 113.23 100.9 118.44 100.9"/><polygon class="cls-3" points="92.23 100.9 77.67 185.09 79.97 185.09 97.44 100.9 92.23 100.9"/><polygon class="cls-7" points="104.03 96.71 68.19 96.71 64.92 72.32 100.77 72.32 104.03 96.71"/><rect class="cls-7" x="68.19" y="96.71" width="47.23" height="2.18"/><path class="cls-15" d="M87.59,84.52a2.66,2.66,0,0,1-2.7,3.1,3.67,3.67,0,0,1-3.52-3.1,2.66,2.66,0,0,1,2.69-3.11A3.67,3.67,0,0,1,87.59,84.52Z"/></g></g></svg>